<svg width="170" height="44" viewBox="0 0 170 44" fill="none" xmlns="http://www.w3.org/2000/svg">
<rect x="1" y="1" width="168" height="42" rx="21" fill="#FFDADA"/>
<rect x="1" y="1" width="168" height="42" rx="21" stroke="#FFDADA" stroke-width="2"/>
<path d="M27.0836 27.224C26.2996 27.224 25.6136 27.056 25.0256 26.72C24.4469 26.384 23.9943 25.8987 23.6676 25.264C23.3503 24.6293 23.1916 23.878 23.1916 23.01V16.976H25.0676V23.122C25.0676 23.8127 25.2403 24.3727 25.5856 24.802C25.9403 25.222 26.4396 25.432 27.0836 25.432C27.7276 25.432 28.2223 25.222 28.5676 24.802C28.9223 24.3727 29.0996 23.8127 29.0996 23.122V16.976H30.9756V23.01C30.9756 23.8407 30.8169 24.5733 30.4996 25.208C30.1823 25.8427 29.7296 26.3373 29.1416 26.692C28.5536 27.0467 27.8676 27.224 27.0836 27.224ZM32.8423 19.86H34.5643V20.756H34.6763C34.891 20.4107 35.1943 20.14 35.5863 19.944C35.9783 19.7387 36.403 19.636 36.8603 19.636C37.719 19.636 38.3723 19.8973 38.8203 20.42C39.2683 20.9427 39.4923 21.6567 39.4923 22.562V27H37.6583V22.786C37.6583 22.3287 37.5416 21.974 37.3083 21.722C37.075 21.47 36.7483 21.344 36.3283 21.344C35.8336 21.344 35.4323 21.5353 35.1243 21.918C34.8256 22.3007 34.6763 22.7813 34.6763 23.36V27H32.8423V19.86ZM42.2591 19.076C41.9325 19.076 41.6525 18.9593 41.4191 18.726C41.1858 18.4927 41.0691 18.2127 41.0691 17.886C41.0691 17.5593 41.1858 17.284 41.4191 17.06C41.6525 16.8267 41.9325 16.71 42.2591 16.71C42.5858 16.71 42.8611 16.8267 43.0851 17.06C43.3185 17.284 43.4351 17.5593 43.4351 17.886C43.4351 18.2127 43.3185 18.4927 43.0851 18.726C42.8611 18.9593 42.5858 19.076 42.2591 19.076ZM41.3351 19.86H43.1691V27H41.3351V19.86ZM48.1319 27.112C47.7773 27.112 47.4506 27.0607 47.1519 26.958C46.8533 26.846 46.6106 26.6967 46.4239 26.51C45.9853 26.09 45.7659 25.4927 45.7659 24.718V21.428H44.5199V19.86H45.7659V17.844H47.5999V19.86H49.3499V21.428H47.5999V24.382C47.5999 24.746 47.6793 25.0073 47.8379 25.166C47.9686 25.3153 48.1926 25.39 48.5099 25.39C48.6873 25.39 48.8319 25.3667 48.9439 25.32C49.0653 25.2733 49.2193 25.194 49.4059 25.082V26.874C49.0046 27.0327 48.5799 27.112 48.1319 27.112ZM57.9787 27.224C57.1761 27.224 56.4714 27.0093 55.8647 26.58C55.2581 26.1413 54.7867 25.544 54.4507 24.788C54.1241 24.0227 53.9607 23.164 53.9607 22.212C53.9607 21.26 54.1241 20.406 54.4507 19.65C54.7867 18.8847 55.2581 18.2873 55.8647 17.858C56.4714 17.4193 57.1761 17.2 57.9787 17.2C58.7814 17.2 59.4861 17.4193 60.0927 17.858C60.6994 18.2873 61.1661 18.8847 61.4927 19.65C61.8287 20.406 61.9967 21.26 61.9967 22.212C61.9967 23.164 61.8287 24.0227 61.4927 24.788C61.1661 25.544 60.6994 26.1413 60.0927 26.58C59.4861 27.0093 58.7814 27.224 57.9787 27.224ZM57.9787 25.502C58.4267 25.502 58.8141 25.362 59.1407 25.082C59.4767 24.7927 59.7287 24.4007 59.8967 23.906C60.0741 23.402 60.1627 22.8373 60.1627 22.212C60.1627 21.2413 59.9667 20.4527 59.5747 19.846C59.1827 19.23 58.6507 18.922 57.9787 18.922C57.3161 18.922 56.7887 19.23 56.3967 19.846C56.0047 20.462 55.8087 21.2507 55.8087 22.212C55.8087 22.8373 55.8927 23.402 56.0607 23.906C56.2381 24.4007 56.4901 24.7927 56.8167 25.082C57.1527 25.362 57.5401 25.502 57.9787 25.502ZM65.5813 19.818L64.1393 20.868L63.2153 19.454L66.0293 17.424H67.4153V27H65.5813V19.818ZM72.8049 21.848H77.5509V23.472H72.8049V21.848ZM87.3325 27.224C86.3618 27.224 85.4751 26.9953 84.6725 26.538C83.8698 26.0713 83.2351 25.4413 82.7685 24.648C82.3111 23.8453 82.0825 22.9587 82.0825 21.988C82.0825 21.0173 82.3111 20.1353 82.7685 19.342C83.2351 18.5393 83.8698 17.9093 84.6725 17.452C85.4751 16.9853 86.3618 16.752 87.3325 16.752C88.8445 16.752 90.0951 17.298 91.0845 18.39L89.7545 19.678C89.1105 18.922 88.3078 18.544 87.3465 18.544C86.7211 18.544 86.1518 18.6887 85.6385 18.978C85.1251 19.258 84.7191 19.6593 84.4205 20.182C84.1311 20.7047 83.9865 21.3067 83.9865 21.988C83.9865 22.6693 84.1311 23.2713 84.4205 23.794C84.7191 24.3167 85.1251 24.7227 85.6385 25.012C86.1518 25.292 86.7211 25.432 87.3465 25.432C88.4011 25.432 89.2831 24.9933 89.9925 24.116L91.3365 25.39C90.8418 25.9873 90.2538 26.4447 89.5725 26.762C88.9005 27.07 88.1538 27.224 87.3325 27.224ZM97.5587 27.224C96.5787 27.224 95.6874 26.9953 94.8847 26.538C94.0914 26.0713 93.466 25.4367 93.0087 24.634C92.5514 23.8313 92.3227 22.9493 92.3227 21.988C92.3227 21.0267 92.5514 20.1447 93.0087 19.342C93.466 18.5393 94.0914 17.9093 94.8847 17.452C95.6874 16.9853 96.5787 16.752 97.5587 16.752C98.5387 16.752 99.4254 16.9853 100.219 17.452C101.021 17.9093 101.651 18.5393 102.109 19.342C102.566 20.1447 102.795 21.0267 102.795 21.988C102.795 22.9493 102.566 23.8313 102.109 24.634C101.651 25.4367 101.021 26.0713 100.219 26.538C99.4254 26.9953 98.5387 27.224 97.5587 27.224ZM97.5587 25.432C98.1747 25.432 98.7394 25.2873 99.2527 24.998C99.766 24.7087 100.167 24.3027 100.457 23.78C100.755 23.2573 100.905 22.66 100.905 21.988C100.905 21.316 100.755 20.7187 100.457 20.196C100.167 19.6733 99.766 19.2673 99.2527 18.978C98.7394 18.6887 98.1747 18.544 97.5587 18.544C96.9427 18.544 96.378 18.6887 95.8647 18.978C95.3607 19.2673 94.9594 19.6733 94.6607 20.196C94.3714 20.7187 94.2267 21.316 94.2267 21.988C94.2267 22.66 94.3714 23.2573 94.6607 23.78C94.9594 24.3027 95.3607 24.7087 95.8647 24.998C96.378 25.2873 96.9427 25.432 97.5587 25.432ZM104.585 16.976H106.475V25.208H110.717V27H104.585V16.976ZM110.509 16.976H112.553L114.625 23.024L114.989 24.298H115.101L115.493 23.024L117.649 16.976H119.693L116.039 27H114.051L110.509 16.976ZM121.032 16.976H122.922V27H121.032V16.976ZM125.202 16.976H127.092V25.208H131.334V27H125.202V16.976ZM132.913 16.976H134.803V25.208H139.045V27H132.913V16.976ZM140.624 16.976H146.98V18.768H142.514V21.092H146.532V22.884H142.514V25.208H146.98V27H140.624V16.976Z" fill="#263238"/>
</svg>
