<svg width="631" height="44" viewBox="0 0 631 44" fill="none" xmlns="http://www.w3.org/2000/svg">
<rect x="1.38281" y="1" width="258" height="42" rx="9" stroke="#263238" stroke-width="2"/>
<path d="M15.4058 15.544H22.6698V17.592H17.5658V20.376H22.1578V22.424H17.5658V27H15.4058V15.544ZM27.6293 27.256C26.8186 27.256 26.0879 27.0693 25.4373 26.696C24.7866 26.3227 24.2746 25.8107 23.9013 25.16C23.5386 24.4987 23.3573 23.7573 23.3573 22.936C23.3573 22.1573 23.5386 21.4373 23.9013 20.776C24.2639 20.104 24.7653 19.5707 25.4053 19.176C26.0453 18.7813 26.7599 18.584 27.5493 18.584C28.3919 18.584 29.1173 18.7653 29.7253 19.128C30.3333 19.4907 30.7919 19.9867 31.1013 20.616C31.4213 21.2453 31.5813 21.944 31.5813 22.712C31.5813 22.9573 31.5653 23.192 31.5333 23.416H25.4053C25.5119 24.0667 25.7679 24.5627 26.1733 24.904C26.5893 25.2347 27.0853 25.4 27.6613 25.4C28.1413 25.4 28.5519 25.2987 28.8933 25.096C29.2453 24.8827 29.5226 24.6 29.7253 24.248L31.4213 25.08C30.5893 26.5307 29.3253 27.256 27.6293 27.256ZM29.5653 21.928C29.5439 21.672 29.4479 21.4213 29.2773 21.176C29.1173 20.92 28.8879 20.712 28.5893 20.552C28.3013 20.3813 27.9599 20.296 27.5653 20.296C27.0639 20.296 26.6319 20.4453 26.2693 20.744C25.9173 21.032 25.6613 21.4267 25.5013 21.928H29.5653ZM36.5135 27.128C36.1082 27.128 35.7348 27.0693 35.3935 26.952C35.0522 26.824 34.7748 26.6533 34.5615 26.44C34.0602 25.96 33.8095 25.2773 33.8095 24.392V20.632H32.3855V18.84H33.8095V16.536H35.9055V18.84H37.9055V20.632H35.9055V24.008C35.9055 24.424 35.9962 24.7227 36.1775 24.904C36.3268 25.0747 36.5828 25.16 36.9455 25.16C37.1482 25.16 37.3135 25.1333 37.4415 25.08C37.5802 25.0267 37.7562 24.936 37.9695 24.808V26.856C37.5108 27.0373 37.0255 27.128 36.5135 27.128ZM43.2078 27.256C42.3864 27.256 41.6504 27.0747 40.9998 26.712C40.3491 26.3387 39.8371 25.8213 39.4638 25.16C39.1011 24.4987 38.9198 23.752 38.9198 22.92C38.9198 22.088 39.1011 21.3467 39.4638 20.696C39.8371 20.0347 40.3491 19.5173 40.9998 19.144C41.6504 18.7707 42.3864 18.584 43.2078 18.584C44.1144 18.584 44.8931 18.7813 45.5438 19.176C46.1944 19.56 46.6638 20.1093 46.9518 20.824L45.0318 21.624C44.6904 20.8987 44.0824 20.536 43.2078 20.536C42.5678 20.536 42.0398 20.7547 41.6238 21.192C41.2184 21.6293 41.0158 22.2053 41.0158 22.92C41.0158 23.6453 41.2184 24.2267 41.6238 24.664C42.0398 25.1013 42.5678 25.32 43.2078 25.32C44.0931 25.32 44.7331 24.936 45.1278 24.168L47.0318 25C46.6798 25.7147 46.1784 26.2693 45.5278 26.664C44.8771 27.0587 44.1038 27.256 43.2078 27.256ZM48.5396 15.544H50.6356V18.44L50.5076 19.864H50.6356C50.8703 19.48 51.2116 19.1707 51.6596 18.936C52.1076 18.7013 52.593 18.584 53.1156 18.584C54.1076 18.584 54.865 18.8827 55.3876 19.48C55.921 20.0667 56.1876 20.8827 56.1876 21.928V27H54.0916V22.184C54.0916 21.6613 53.9476 21.256 53.6596 20.968C53.3823 20.68 53.009 20.536 52.5396 20.536C51.985 20.536 51.5263 20.76 51.1636 21.208C50.8116 21.656 50.6356 22.2053 50.6356 22.856V27H48.5396V15.544ZM69.7781 26.744C68.9781 27.0853 68.1515 27.256 67.2981 27.256C66.1781 27.256 65.1595 26.9947 64.2421 26.472C63.3355 25.9387 62.6208 25.2133 62.0981 24.296C61.5755 23.3787 61.3141 22.3707 61.3141 21.272C61.3141 20.1733 61.5755 19.1653 62.0981 18.248C62.6208 17.3307 63.3355 16.6107 64.2421 16.088C65.1595 15.5547 66.1781 15.288 67.2981 15.288C68.4181 15.288 69.4315 15.5547 70.3381 16.088C71.2555 16.6107 71.9755 17.3307 72.4981 18.248C73.0208 19.1653 73.2821 20.1733 73.2821 21.272C73.2821 22.1467 73.1168 22.9627 72.7861 23.72C72.4555 24.4773 71.9915 25.1333 71.3941 25.688L72.2741 27L70.6741 28.072L69.7781 26.744ZM67.2981 25.208C67.7141 25.208 68.1461 25.128 68.5941 24.968L67.3461 23.096L68.9461 22.008L70.1941 23.896C70.4928 23.5653 70.7221 23.176 70.8821 22.728C71.0421 22.28 71.1221 21.7947 71.1221 21.272C71.1221 20.504 70.9515 19.8213 70.6101 19.224C70.2795 18.6267 69.8208 18.1627 69.2341 17.832C68.6475 17.5013 68.0021 17.336 67.2981 17.336C66.5941 17.336 65.9488 17.5013 65.3621 17.832C64.7861 18.1627 64.3275 18.6267 63.9861 19.224C63.6555 19.8213 63.4901 20.504 63.4901 21.272C63.4901 22.04 63.6555 22.7227 63.9861 23.32C64.3275 23.9173 64.7861 24.3813 65.3621 24.712C65.9488 25.0427 66.5941 25.208 67.2981 25.208ZM77.9836 27.256C77.0023 27.256 76.2556 26.952 75.7436 26.344C75.2316 25.736 74.9756 24.888 74.9756 23.8V18.84H77.0716V23.544C77.0716 24.0987 77.205 24.536 77.4716 24.856C77.7383 25.1653 78.0903 25.32 78.5276 25.32C79.125 25.32 79.5996 25.1013 79.9516 24.664C80.3036 24.2267 80.4796 23.672 80.4796 23V18.84H82.5756V27H80.6076V25.976H80.4796C80.2343 26.3707 79.8876 26.6853 79.4396 26.92C79.0023 27.144 78.517 27.256 77.9836 27.256ZM85.8018 17.944C85.4284 17.944 85.1084 17.8107 84.8418 17.544C84.5751 17.2773 84.4418 16.9573 84.4418 16.584C84.4418 16.2107 84.5751 15.896 84.8418 15.64C85.1084 15.3733 85.4284 15.24 85.8018 15.24C86.1751 15.24 86.4898 15.3733 86.7458 15.64C87.0124 15.896 87.1458 16.2107 87.1458 16.584C87.1458 16.9573 87.0124 17.2773 86.7458 17.544C86.4898 17.8107 86.1751 17.944 85.8018 17.944ZM84.7458 18.84H86.8418V27H84.7458V18.84ZM92.8015 27.256C91.9802 27.256 91.2442 27.0747 90.5935 26.712C89.9428 26.3387 89.4308 25.8213 89.0575 25.16C88.6948 24.4987 88.5135 23.752 88.5135 22.92C88.5135 22.088 88.6948 21.3467 89.0575 20.696C89.4308 20.0347 89.9428 19.5173 90.5935 19.144C91.2442 18.7707 91.9802 18.584 92.8015 18.584C93.7082 18.584 94.4868 18.7813 95.1375 19.176C95.7882 19.56 96.2575 20.1093 96.5455 20.824L94.6255 21.624C94.2842 20.8987 93.6762 20.536 92.8015 20.536C92.1615 20.536 91.6335 20.7547 91.2175 21.192C90.8122 21.6293 90.6095 22.2053 90.6095 22.92C90.6095 23.6453 90.8122 24.2267 91.2175 24.664C91.6335 25.1013 92.1615 25.32 92.8015 25.32C93.6868 25.32 94.3268 24.936 94.7215 24.168L96.6255 25C96.2735 25.7147 95.7722 26.2693 95.1215 26.664C94.4708 27.0587 93.6975 27.256 92.8015 27.256ZM98.1334 15.544H100.229V21.784H100.341L103.269 18.84H105.845V18.968L102.757 21.992L105.989 26.872V27H103.509L101.285 23.432L100.229 24.472V27H98.1334V15.544ZM107.359 15.544H111.839C112.479 15.544 113.066 15.6773 113.599 15.944C114.143 16.2107 114.57 16.5733 114.879 17.032C115.188 17.4907 115.343 17.992 115.343 18.536C115.343 19.112 115.199 19.6133 114.911 20.04C114.634 20.456 114.266 20.776 113.807 21V21.128C114.404 21.3413 114.879 21.6827 115.231 22.152C115.583 22.6107 115.759 23.1653 115.759 23.816C115.759 24.4453 115.588 25.0053 115.247 25.496C114.916 25.976 114.463 26.3493 113.887 26.616C113.322 26.872 112.692 27 111.999 27H107.359V15.544ZM111.679 20.216C112.148 20.216 112.522 20.088 112.799 19.832C113.087 19.5653 113.231 19.2347 113.231 18.84C113.231 18.456 113.092 18.136 112.815 17.88C112.548 17.6133 112.191 17.48 111.743 17.48H109.519V20.216H111.679ZM111.919 25.032C112.442 25.032 112.847 24.8987 113.135 24.632C113.434 24.3547 113.583 23.9973 113.583 23.56C113.583 23.1227 113.434 22.7653 113.135 22.488C112.836 22.2107 112.41 22.072 111.855 22.072H109.519V25.032H111.919ZM121.334 27.256C120.492 27.256 119.74 27.0693 119.078 26.696C118.417 26.312 117.9 25.7947 117.526 25.144C117.164 24.4827 116.982 23.7413 116.982 22.92C116.982 22.1093 117.164 21.3733 117.526 20.712C117.9 20.0507 118.417 19.5333 119.078 19.16C119.74 18.776 120.492 18.584 121.334 18.584C122.166 18.584 122.913 18.776 123.574 19.16C124.236 19.5333 124.748 20.0507 125.11 20.712C125.484 21.3733 125.67 22.1093 125.67 22.92C125.67 23.7413 125.484 24.4827 125.11 25.144C124.748 25.7947 124.236 26.312 123.574 26.696C122.913 27.0693 122.166 27.256 121.334 27.256ZM121.334 25.32C121.74 25.32 122.113 25.224 122.454 25.032C122.796 24.84 123.068 24.5627 123.27 24.2C123.473 23.8373 123.574 23.4107 123.574 22.92C123.574 22.44 123.473 22.0187 123.27 21.656C123.068 21.2933 122.796 21.016 122.454 20.824C122.113 20.632 121.74 20.536 121.334 20.536C120.929 20.536 120.556 20.632 120.214 20.824C119.873 21.016 119.596 21.2933 119.382 21.656C119.18 22.0187 119.078 22.44 119.078 22.92C119.078 23.4 119.18 23.8267 119.382 24.2C119.596 24.5627 119.873 24.84 120.214 25.032C120.556 25.224 120.929 25.32 121.334 25.32ZM131.178 27.256C130.335 27.256 129.583 27.0693 128.922 26.696C128.261 26.312 127.743 25.7947 127.37 25.144C127.007 24.4827 126.826 23.7413 126.826 22.92C126.826 22.1093 127.007 21.3733 127.37 20.712C127.743 20.0507 128.261 19.5333 128.922 19.16C129.583 18.776 130.335 18.584 131.178 18.584C132.01 18.584 132.757 18.776 133.418 19.16C134.079 19.5333 134.591 20.0507 134.954 20.712C135.327 21.3733 135.514 22.1093 135.514 22.92C135.514 23.7413 135.327 24.4827 134.954 25.144C134.591 25.7947 134.079 26.312 133.418 26.696C132.757 27.0693 132.01 27.256 131.178 27.256ZM131.178 25.32C131.583 25.32 131.957 25.224 132.298 25.032C132.639 24.84 132.911 24.5627 133.114 24.2C133.317 23.8373 133.418 23.4107 133.418 22.92C133.418 22.44 133.317 22.0187 133.114 21.656C132.911 21.2933 132.639 21.016 132.298 20.824C131.957 20.632 131.583 20.536 131.178 20.536C130.773 20.536 130.399 20.632 130.058 20.824C129.717 21.016 129.439 21.2933 129.226 21.656C129.023 22.0187 128.922 22.44 128.922 22.92C128.922 23.4 129.023 23.8267 129.226 24.2C129.439 24.5627 129.717 24.84 130.058 25.032C130.399 25.224 130.773 25.32 131.178 25.32ZM137.04 15.544H139.136V21.784H139.248L142.176 18.84H144.752V18.968L141.664 21.992L144.896 26.872V27H142.416L140.192 23.432L139.136 24.472V27H137.04V15.544ZM148.925 27.256C147.933 27.256 147.128 27.0533 146.509 26.648C145.901 26.2427 145.474 25.7147 145.229 25.064L147.101 24.248C147.272 24.632 147.512 24.9253 147.821 25.128C148.141 25.32 148.509 25.416 148.925 25.416C149.309 25.416 149.629 25.3573 149.885 25.24C150.141 25.112 150.269 24.9093 150.269 24.632C150.269 24.3653 150.152 24.168 149.917 24.04C149.682 23.9013 149.33 23.7787 148.861 23.672L147.901 23.464C147.24 23.304 146.69 23.016 146.253 22.6C145.816 22.1733 145.597 21.6453 145.597 21.016C145.597 20.5467 145.736 20.1253 146.013 19.752C146.301 19.3787 146.685 19.0907 147.165 18.888C147.656 18.6853 148.194 18.584 148.781 18.584C150.466 18.584 151.592 19.176 152.157 20.36L150.365 21.144C150.045 20.568 149.533 20.28 148.829 20.28C148.466 20.28 148.178 20.3493 147.965 20.488C147.752 20.616 147.645 20.7813 147.645 20.984C147.645 21.368 148.008 21.656 148.733 21.848L149.933 22.136C150.744 22.3387 151.352 22.648 151.757 23.064C152.173 23.48 152.381 23.992 152.381 24.6C152.381 25.1227 152.226 25.5867 151.917 25.992C151.618 26.3867 151.202 26.696 150.669 26.92C150.146 27.144 149.565 27.256 148.925 27.256ZM163.033 27.256C161.913 27.256 160.894 26.9947 159.977 26.472C159.07 25.9387 158.355 25.2133 157.833 24.296C157.31 23.3787 157.049 22.3707 157.049 21.272C157.049 20.1733 157.31 19.1653 157.833 18.248C158.355 17.3307 159.07 16.6107 159.977 16.088C160.894 15.5547 161.913 15.288 163.033 15.288C164.153 15.288 165.166 15.5547 166.073 16.088C166.99 16.6107 167.71 17.3307 168.233 18.248C168.755 19.1653 169.017 20.1733 169.017 21.272C169.017 22.3707 168.755 23.3787 168.233 24.296C167.71 25.2133 166.99 25.9387 166.073 26.472C165.166 26.9947 164.153 27.256 163.033 27.256ZM163.033 25.208C163.737 25.208 164.382 25.0427 164.969 24.712C165.555 24.3813 166.014 23.9173 166.345 23.32C166.686 22.7227 166.857 22.04 166.857 21.272C166.857 20.504 166.686 19.8213 166.345 19.224C166.014 18.6267 165.555 18.1627 164.969 17.832C164.382 17.5013 163.737 17.336 163.033 17.336C162.329 17.336 161.683 17.5013 161.097 17.832C160.521 18.1627 160.062 18.6267 159.721 19.224C159.39 19.8213 159.225 20.504 159.225 21.272C159.225 22.04 159.39 22.7227 159.721 23.32C160.062 23.9173 160.521 24.3813 161.097 24.712C161.683 25.0427 162.329 25.208 163.033 25.208ZM170.696 18.84H172.664V19.864H172.792C173.037 19.4693 173.384 19.16 173.832 18.936C174.28 18.7013 174.765 18.584 175.288 18.584C176.269 18.584 177.016 18.8827 177.528 19.48C178.04 20.0773 178.296 20.8933 178.296 21.928V27H176.2V22.184C176.2 21.6613 176.067 21.256 175.8 20.968C175.533 20.68 175.16 20.536 174.68 20.536C174.115 20.536 173.656 20.7547 173.304 21.192C172.963 21.6293 172.792 22.1787 172.792 22.84V27H170.696V18.84ZM180.274 15.544H182.37V27H180.274V15.544ZM185.614 17.944C185.241 17.944 184.921 17.8107 184.654 17.544C184.388 17.2773 184.254 16.9573 184.254 16.584C184.254 16.2107 184.388 15.896 184.654 15.64C184.921 15.3733 185.241 15.24 185.614 15.24C185.988 15.24 186.302 15.3733 186.558 15.64C186.825 15.896 186.958 16.2107 186.958 16.584C186.958 16.9573 186.825 17.2773 186.558 17.544C186.302 17.8107 185.988 17.944 185.614 17.944ZM184.558 18.84H186.654V27H184.558V18.84ZM188.852 18.84H190.82V19.864H190.948C191.193 19.4693 191.54 19.16 191.988 18.936C192.436 18.7013 192.921 18.584 193.444 18.584C194.425 18.584 195.172 18.8827 195.684 19.48C196.196 20.0773 196.452 20.8933 196.452 21.928V27H194.356V22.184C194.356 21.6613 194.223 21.256 193.956 20.968C193.689 20.68 193.316 20.536 192.836 20.536C192.271 20.536 191.812 20.7547 191.46 21.192C191.119 21.6293 190.948 22.1787 190.948 22.84V27H188.852V18.84ZM202.254 27.256C201.444 27.256 200.713 27.0693 200.062 26.696C199.412 26.3227 198.9 25.8107 198.526 25.16C198.164 24.4987 197.982 23.7573 197.982 22.936C197.982 22.1573 198.164 21.4373 198.526 20.776C198.889 20.104 199.39 19.5707 200.03 19.176C200.67 18.7813 201.385 18.584 202.174 18.584C203.017 18.584 203.742 18.7653 204.35 19.128C204.958 19.4907 205.417 19.9867 205.726 20.616C206.046 21.2453 206.206 21.944 206.206 22.712C206.206 22.9573 206.19 23.192 206.158 23.416H200.03C200.137 24.0667 200.393 24.5627 200.798 24.904C201.214 25.2347 201.71 25.4 202.286 25.4C202.766 25.4 203.177 25.2987 203.518 25.096C203.87 24.8827 204.148 24.6 204.35 24.248L206.046 25.08C205.214 26.5307 203.95 27.256 202.254 27.256ZM204.19 21.928C204.169 21.672 204.073 21.4213 203.902 21.176C203.742 20.92 203.513 20.712 203.214 20.552C202.926 20.3813 202.585 20.296 202.19 20.296C201.689 20.296 201.257 20.4453 200.894 20.744C200.542 21.032 200.286 21.4267 200.126 21.928H204.19ZM211.859 15.544H215.731C216.926 15.544 217.966 15.784 218.851 16.264C219.736 16.744 220.419 17.416 220.899 18.28C221.379 19.144 221.619 20.1413 221.619 21.272C221.619 22.4027 221.379 23.4 220.899 24.264C220.419 25.128 219.736 25.8 218.851 26.28C217.966 26.76 216.926 27 215.731 27H211.859V15.544ZM215.635 24.952C216.872 24.952 217.816 24.6267 218.467 23.976C219.118 23.3147 219.443 22.4133 219.443 21.272C219.443 20.1307 219.118 19.2347 218.467 18.584C217.816 17.9227 216.872 17.592 215.635 17.592H214.019V24.952H215.635ZM225.879 27.256C225.015 27.256 224.306 27.0053 223.751 26.504C223.197 25.992 222.919 25.3253 222.919 24.504C222.919 23.96 223.063 23.48 223.351 23.064C223.639 22.648 224.034 22.328 224.535 22.104C225.037 21.88 225.591 21.768 226.199 21.768C227.042 21.768 227.762 21.8907 228.359 22.136V21.784C228.359 21.336 228.189 20.9733 227.847 20.696C227.517 20.4187 227.069 20.28 226.503 20.28C226.119 20.28 225.746 20.3707 225.383 20.552C225.031 20.7227 224.738 20.952 224.503 21.24L223.159 20.184C223.554 19.672 224.05 19.2773 224.647 19C225.245 18.7227 225.895 18.584 226.599 18.584C227.847 18.584 228.797 18.872 229.447 19.448C230.098 20.024 230.423 20.8667 230.423 21.976V27H228.359V26.168H228.231C227.986 26.488 227.661 26.7493 227.255 26.952C226.861 27.1547 226.402 27.256 225.879 27.256ZM226.375 25.624C226.983 25.624 227.463 25.432 227.815 25.048C228.178 24.6533 228.359 24.1947 228.359 23.672C227.815 23.416 227.245 23.288 226.647 23.288C225.559 23.288 225.015 23.6933 225.015 24.504C225.015 24.8347 225.133 25.1067 225.367 25.32C225.602 25.5227 225.938 25.624 226.375 25.624ZM235.748 27.128C235.343 27.128 234.969 27.0693 234.628 26.952C234.287 26.824 234.009 26.6533 233.796 26.44C233.295 25.96 233.044 25.2773 233.044 24.392V20.632H231.62V18.84H233.044V16.536H235.14V18.84H237.14V20.632H235.14V24.008C235.14 24.424 235.231 24.7227 235.412 24.904C235.561 25.0747 235.817 25.16 236.18 25.16C236.383 25.16 236.548 25.1333 236.676 25.08C236.815 25.0267 236.991 24.936 237.204 24.808V26.856C236.745 27.0373 236.26 27.128 235.748 27.128ZM241.223 27.256C240.359 27.256 239.65 27.0053 239.095 26.504C238.54 25.992 238.263 25.3253 238.263 24.504C238.263 23.96 238.407 23.48 238.695 23.064C238.983 22.648 239.378 22.328 239.879 22.104C240.38 21.88 240.935 21.768 241.543 21.768C242.386 21.768 243.106 21.8907 243.703 22.136V21.784C243.703 21.336 243.532 20.9733 243.191 20.696C242.86 20.4187 242.412 20.28 241.847 20.28C241.463 20.28 241.09 20.3707 240.727 20.552C240.375 20.7227 240.082 20.952 239.847 21.24L238.503 20.184C238.898 19.672 239.394 19.2773 239.991 19C240.588 18.7227 241.239 18.584 241.943 18.584C243.191 18.584 244.14 18.872 244.791 19.448C245.442 20.024 245.767 20.8667 245.767 21.976V27H243.703V26.168H243.575C243.33 26.488 243.004 26.7493 242.599 26.952C242.204 27.1547 241.746 27.256 241.223 27.256ZM241.719 25.624C242.327 25.624 242.807 25.432 243.159 25.048C243.522 24.6533 243.703 24.1947 243.703 23.672C243.159 23.416 242.588 23.288 241.991 23.288C240.903 23.288 240.359 23.6933 240.359 24.504C240.359 24.8347 240.476 25.1067 240.711 25.32C240.946 25.5227 241.282 25.624 241.719 25.624Z" fill="#263238"/>
<rect x="281.383" y="1" width="128" height="42" rx="9" fill="#263238"/>
<rect x="281.383" y="1" width="128" height="42" rx="9" stroke="#263238" stroke-width="2"/>
<path d="M316.234 15.544H320.41C321.157 15.544 321.818 15.6987 322.394 16.008C322.981 16.3173 323.434 16.7493 323.754 17.304C324.074 17.848 324.234 18.4667 324.234 19.16C324.234 19.896 323.999 20.552 323.53 21.128C323.071 21.6933 322.49 22.104 321.786 22.36L321.77 22.472L324.842 26.872V27H322.362L319.402 22.696H318.394V27H316.234V15.544ZM320.394 20.712C320.885 20.712 321.285 20.5627 321.594 20.264C321.903 19.9653 322.058 19.5867 322.058 19.128C322.058 18.6907 321.909 18.3173 321.61 18.008C321.322 17.6987 320.927 17.544 320.426 17.544H318.394V20.712H320.394ZM329.754 27.256C328.944 27.256 328.213 27.0693 327.562 26.696C326.912 26.3227 326.4 25.8107 326.026 25.16C325.664 24.4987 325.482 23.7573 325.482 22.936C325.482 22.1573 325.664 21.4373 326.026 20.776C326.389 20.104 326.89 19.5707 327.53 19.176C328.17 18.7813 328.885 18.584 329.674 18.584C330.517 18.584 331.242 18.7653 331.85 19.128C332.458 19.4907 332.917 19.9867 333.226 20.616C333.546 21.2453 333.706 21.944 333.706 22.712C333.706 22.9573 333.69 23.192 333.658 23.416H327.53C327.637 24.0667 327.893 24.5627 328.298 24.904C328.714 25.2347 329.21 25.4 329.786 25.4C330.266 25.4 330.677 25.2987 331.018 25.096C331.37 24.8827 331.648 24.6 331.85 24.248L333.546 25.08C332.714 26.5307 331.45 27.256 329.754 27.256ZM331.69 21.928C331.669 21.672 331.573 21.4213 331.402 21.176C331.242 20.92 331.013 20.712 330.714 20.552C330.426 20.3813 330.085 20.296 329.69 20.296C329.189 20.296 328.757 20.4453 328.394 20.744C328.042 21.032 327.786 21.4267 327.626 21.928H331.69ZM335.257 18.84H337.225V19.832H337.353C337.577 19.48 337.902 19.1867 338.329 18.952C338.756 18.7067 339.246 18.584 339.801 18.584C340.537 18.584 341.204 18.7707 341.801 19.144C342.409 19.5067 342.884 20.0187 343.225 20.68C343.566 21.3413 343.737 22.088 343.737 22.92C343.737 23.7627 343.566 24.5147 343.225 25.176C342.884 25.8267 342.409 26.3387 341.801 26.712C341.204 27.0747 340.537 27.256 339.801 27.256C339.246 27.256 338.75 27.1387 338.313 26.904C337.886 26.6693 337.566 26.376 337.353 26.024H337.225L337.353 27.176V30.456H335.257V18.84ZM339.433 25.32C339.828 25.32 340.196 25.2187 340.537 25.016C340.878 24.8133 341.15 24.5307 341.353 24.168C341.556 23.8053 341.657 23.3893 341.657 22.92C341.657 22.4507 341.556 22.0347 341.353 21.672C341.15 21.3093 340.878 21.032 340.537 20.84C340.196 20.6373 339.828 20.536 339.433 20.536C339.049 20.536 338.686 20.6373 338.345 20.84C338.004 21.032 337.732 21.3093 337.529 21.672C337.326 22.0347 337.225 22.4507 337.225 22.92C337.225 23.3893 337.326 23.8053 337.529 24.168C337.732 24.5307 338.004 24.8133 338.345 25.016C338.686 25.2187 339.049 25.32 339.433 25.32ZM349.256 27.256C348.413 27.256 347.661 27.0693 347 26.696C346.339 26.312 345.821 25.7947 345.448 25.144C345.085 24.4827 344.904 23.7413 344.904 22.92C344.904 22.1093 345.085 21.3733 345.448 20.712C345.821 20.0507 346.339 19.5333 347 19.16C347.661 18.776 348.413 18.584 349.256 18.584C350.088 18.584 350.835 18.776 351.496 19.16C352.157 19.5333 352.669 20.0507 353.032 20.712C353.405 21.3733 353.592 22.1093 353.592 22.92C353.592 23.7413 353.405 24.4827 353.032 25.144C352.669 25.7947 352.157 26.312 351.496 26.696C350.835 27.0693 350.088 27.256 349.256 27.256ZM349.256 25.32C349.661 25.32 350.035 25.224 350.376 25.032C350.717 24.84 350.989 24.5627 351.192 24.2C351.395 23.8373 351.496 23.4107 351.496 22.92C351.496 22.44 351.395 22.0187 351.192 21.656C350.989 21.2933 350.717 21.016 350.376 20.824C350.035 20.632 349.661 20.536 349.256 20.536C348.851 20.536 348.477 20.632 348.136 20.824C347.795 21.016 347.517 21.2933 347.304 21.656C347.101 22.0187 347 22.44 347 22.92C347 23.4 347.101 23.8267 347.304 24.2C347.517 24.5627 347.795 24.84 348.136 25.032C348.477 25.224 348.851 25.32 349.256 25.32ZM355.04 18.84H357.008V19.928H357.136C357.349 19.5333 357.674 19.2187 358.112 18.984C358.549 18.7387 359.018 18.616 359.52 18.616C359.882 18.616 360.138 18.648 360.288 18.712V20.76C360.021 20.6533 359.69 20.6 359.296 20.6C358.634 20.6 358.106 20.8133 357.712 21.24C357.328 21.6667 357.136 22.248 357.136 22.984V27H355.04V18.84ZM365.504 27.128C365.098 27.128 364.725 27.0693 364.384 26.952C364.042 26.824 363.765 26.6533 363.552 26.44C363.05 25.96 362.8 25.2773 362.8 24.392V20.632H361.376V18.84H362.8V16.536H364.896V18.84H366.896V20.632H364.896V24.008C364.896 24.424 364.986 24.7227 365.168 24.904C365.317 25.0747 365.573 25.16 365.936 25.16C366.138 25.16 366.304 25.1333 366.432 25.08C366.57 25.0267 366.746 24.936 366.96 24.808V26.856C366.501 27.0373 366.016 27.128 365.504 27.128ZM371.894 27.256C370.902 27.256 370.096 27.0533 369.478 26.648C368.87 26.2427 368.443 25.7147 368.198 25.064L370.07 24.248C370.24 24.632 370.48 24.9253 370.79 25.128C371.11 25.32 371.478 25.416 371.894 25.416C372.278 25.416 372.598 25.3573 372.854 25.24C373.11 25.112 373.238 24.9093 373.238 24.632C373.238 24.3653 373.12 24.168 372.886 24.04C372.651 23.9013 372.299 23.7787 371.83 23.672L370.87 23.464C370.208 23.304 369.659 23.016 369.222 22.6C368.784 22.1733 368.566 21.6453 368.566 21.016C368.566 20.5467 368.704 20.1253 368.982 19.752C369.27 19.3787 369.654 19.0907 370.134 18.888C370.624 18.6853 371.163 18.584 371.75 18.584C373.435 18.584 374.56 19.176 375.126 20.36L373.334 21.144C373.014 20.568 372.502 20.28 371.798 20.28C371.435 20.28 371.147 20.3493 370.934 20.488C370.72 20.616 370.614 20.7813 370.614 20.984C370.614 21.368 370.976 21.656 371.702 21.848L372.902 22.136C373.712 22.3387 374.32 22.648 374.726 23.064C375.142 23.48 375.35 23.992 375.35 24.6C375.35 25.1227 375.195 25.5867 374.886 25.992C374.587 26.3867 374.171 26.696 373.638 26.92C373.115 27.144 372.534 27.256 371.894 27.256Z" fill="#FCFCFC"/>
<rect x="431.383" y="1" width="198" height="42" rx="9" fill="#263238"/>
<rect x="431.383" y="1" width="198" height="42" rx="9" stroke="#263238" stroke-width="2"/>
<path d="M458.713 27.256C457.603 27.256 456.59 26.9947 455.673 26.472C454.755 25.9387 454.03 25.2187 453.497 24.312C452.974 23.3947 452.713 22.3813 452.713 21.272C452.713 20.1627 452.974 19.1547 453.497 18.248C454.03 17.3307 454.755 16.6107 455.673 16.088C456.59 15.5547 457.603 15.288 458.713 15.288C460.441 15.288 461.87 15.912 463.001 17.16L461.481 18.632C460.745 17.768 459.827 17.336 458.729 17.336C458.014 17.336 457.363 17.5013 456.777 17.832C456.19 18.152 455.726 18.6107 455.385 19.208C455.054 19.8053 454.889 20.4933 454.889 21.272C454.889 22.0507 455.054 22.7387 455.385 23.336C455.726 23.9333 456.19 24.3973 456.777 24.728C457.363 25.048 458.014 25.208 458.729 25.208C459.934 25.208 460.942 24.7067 461.753 23.704L463.289 25.16C462.723 25.8427 462.051 26.3653 461.273 26.728C460.505 27.08 459.651 27.256 458.713 27.256ZM468.592 27.256C467.749 27.256 466.997 27.0693 466.336 26.696C465.675 26.312 465.157 25.7947 464.784 25.144C464.421 24.4827 464.24 23.7413 464.24 22.92C464.24 22.1093 464.421 21.3733 464.784 20.712C465.157 20.0507 465.675 19.5333 466.336 19.16C466.997 18.776 467.749 18.584 468.592 18.584C469.424 18.584 470.171 18.776 470.832 19.16C471.493 19.5333 472.005 20.0507 472.368 20.712C472.741 21.3733 472.928 22.1093 472.928 22.92C472.928 23.7413 472.741 24.4827 472.368 25.144C472.005 25.7947 471.493 26.312 470.832 26.696C470.171 27.0693 469.424 27.256 468.592 27.256ZM468.592 25.32C468.997 25.32 469.371 25.224 469.712 25.032C470.053 24.84 470.325 24.5627 470.528 24.2C470.731 23.8373 470.832 23.4107 470.832 22.92C470.832 22.44 470.731 22.0187 470.528 21.656C470.325 21.2933 470.053 21.016 469.712 20.824C469.371 20.632 468.997 20.536 468.592 20.536C468.187 20.536 467.813 20.632 467.472 20.824C467.131 21.016 466.853 21.2933 466.64 21.656C466.437 22.0187 466.336 22.44 466.336 22.92C466.336 23.4 466.437 23.8267 466.64 24.2C466.853 24.5627 467.131 24.84 467.472 25.032C467.813 25.224 468.187 25.32 468.592 25.32ZM474.376 18.84H476.344V19.864H476.472C476.717 19.4693 477.064 19.16 477.512 18.936C477.96 18.7013 478.445 18.584 478.968 18.584C479.949 18.584 480.696 18.8827 481.208 19.48C481.72 20.0773 481.976 20.8933 481.976 21.928V27H479.88V22.184C479.88 21.6613 479.746 21.256 479.48 20.968C479.213 20.68 478.84 20.536 478.36 20.536C477.794 20.536 477.336 20.7547 476.984 21.192C476.642 21.6293 476.472 22.1787 476.472 22.84V27H474.376V18.84ZM483.954 18.84H485.922V19.864H486.05C486.295 19.4693 486.642 19.16 487.09 18.936C487.538 18.7013 488.023 18.584 488.546 18.584C489.527 18.584 490.274 18.8827 490.786 19.48C491.298 20.0773 491.554 20.8933 491.554 21.928V27H489.458V22.184C489.458 21.6613 489.324 21.256 489.058 20.968C488.791 20.68 488.418 20.536 487.938 20.536C487.372 20.536 486.914 20.7547 486.562 21.192C486.22 21.6293 486.05 22.1787 486.05 22.84V27H483.954V18.84ZM497.356 27.256C496.545 27.256 495.814 27.0693 495.164 26.696C494.513 26.3227 494.001 25.8107 493.628 25.16C493.265 24.4987 493.084 23.7573 493.084 22.936C493.084 22.1573 493.265 21.4373 493.628 20.776C493.99 20.104 494.492 19.5707 495.132 19.176C495.772 18.7813 496.486 18.584 497.276 18.584C498.118 18.584 498.844 18.7653 499.452 19.128C500.06 19.4907 500.518 19.9867 500.828 20.616C501.148 21.2453 501.308 21.944 501.308 22.712C501.308 22.9573 501.292 23.192 501.26 23.416H495.132C495.238 24.0667 495.494 24.5627 495.9 24.904C496.316 25.2347 496.812 25.4 497.388 25.4C497.868 25.4 498.278 25.2987 498.62 25.096C498.972 24.8827 499.249 24.6 499.452 24.248L501.148 25.08C500.316 26.5307 499.052 27.256 497.356 27.256ZM499.292 21.928C499.27 21.672 499.174 21.4213 499.004 21.176C498.844 20.92 498.614 20.712 498.316 20.552C498.028 20.3813 497.686 20.296 497.292 20.296C496.79 20.296 496.358 20.4453 495.996 20.744C495.644 21.032 495.388 21.4267 495.228 21.928H499.292ZM506.841 27.256C506.019 27.256 505.283 27.0747 504.633 26.712C503.982 26.3387 503.47 25.8213 503.097 25.16C502.734 24.4987 502.553 23.752 502.553 22.92C502.553 22.088 502.734 21.3467 503.097 20.696C503.47 20.0347 503.982 19.5173 504.633 19.144C505.283 18.7707 506.019 18.584 506.841 18.584C507.747 18.584 508.526 18.7813 509.177 19.176C509.827 19.56 510.297 20.1093 510.585 20.824L508.665 21.624C508.323 20.8987 507.715 20.536 506.841 20.536C506.201 20.536 505.673 20.7547 505.257 21.192C504.851 21.6293 504.649 22.2053 504.649 22.92C504.649 23.6453 504.851 24.2267 505.257 24.664C505.673 25.1013 506.201 25.32 506.841 25.32C507.726 25.32 508.366 24.936 508.761 24.168L510.665 25C510.313 25.7147 509.811 26.2693 509.161 26.664C508.51 27.0587 507.737 27.256 506.841 27.256ZM515.646 27.128C515.241 27.128 514.868 27.0693 514.526 26.952C514.185 26.824 513.908 26.6533 513.694 26.44C513.193 25.96 512.942 25.2773 512.942 24.392V20.632H511.518V18.84H512.942V16.536H515.038V18.84H517.038V20.632H515.038V24.008C515.038 24.424 515.129 24.7227 515.31 24.904C515.46 25.0747 515.716 25.16 516.078 25.16C516.281 25.16 516.446 25.1333 516.574 25.08C516.713 25.0267 516.889 24.936 517.102 24.808V26.856C516.644 27.0373 516.158 27.128 515.646 27.128ZM522.82 15.544H526.692C527.886 15.544 528.926 15.784 529.812 16.264C530.697 16.744 531.38 17.416 531.86 18.28C532.34 19.144 532.58 20.1413 532.58 21.272C532.58 22.4027 532.34 23.4 531.86 24.264C531.38 25.128 530.697 25.8 529.812 26.28C528.926 26.76 527.886 27 526.692 27H522.82V15.544ZM526.596 24.952C527.833 24.952 528.777 24.6267 529.428 23.976C530.078 23.3147 530.404 22.4133 530.404 21.272C530.404 20.1307 530.078 19.2347 529.428 18.584C528.777 17.9227 527.833 17.592 526.596 17.592H524.98V24.952H526.596ZM536.84 27.256C535.976 27.256 535.267 27.0053 534.712 26.504C534.158 25.992 533.88 25.3253 533.88 24.504C533.88 23.96 534.024 23.48 534.312 23.064C534.6 22.648 534.995 22.328 535.496 22.104C535.998 21.88 536.552 21.768 537.16 21.768C538.003 21.768 538.723 21.8907 539.32 22.136V21.784C539.32 21.336 539.15 20.9733 538.808 20.696C538.478 20.4187 538.03 20.28 537.464 20.28C537.08 20.28 536.707 20.3707 536.344 20.552C535.992 20.7227 535.699 20.952 535.464 21.24L534.12 20.184C534.515 19.672 535.011 19.2773 535.608 19C536.206 18.7227 536.856 18.584 537.56 18.584C538.808 18.584 539.758 18.872 540.408 19.448C541.059 20.024 541.384 20.8667 541.384 21.976V27H539.32V26.168H539.192C538.947 26.488 538.622 26.7493 538.216 26.952C537.822 27.1547 537.363 27.256 536.84 27.256ZM537.336 25.624C537.944 25.624 538.424 25.432 538.776 25.048C539.139 24.6533 539.32 24.1947 539.32 23.672C538.776 23.416 538.206 23.288 537.608 23.288C536.52 23.288 535.976 23.6933 535.976 24.504C535.976 24.8347 536.094 25.1067 536.328 25.32C536.563 25.5227 536.899 25.624 537.336 25.624ZM546.709 27.128C546.303 27.128 545.93 27.0693 545.589 26.952C545.247 26.824 544.97 26.6533 544.757 26.44C544.255 25.96 544.005 25.2773 544.005 24.392V20.632H542.581V18.84H544.005V16.536H546.101V18.84H548.101V20.632H546.101V24.008C546.101 24.424 546.191 24.7227 546.373 24.904C546.522 25.0747 546.778 25.16 547.141 25.16C547.343 25.16 547.509 25.1333 547.637 25.08C547.775 25.0267 547.951 24.936 548.165 24.808V26.856C547.706 27.0373 547.221 27.128 546.709 27.128ZM552.184 27.256C551.32 27.256 550.611 27.0053 550.056 26.504C549.501 25.992 549.224 25.3253 549.224 24.504C549.224 23.96 549.368 23.48 549.656 23.064C549.944 22.648 550.339 22.328 550.84 22.104C551.341 21.88 551.896 21.768 552.504 21.768C553.347 21.768 554.067 21.8907 554.664 22.136V21.784C554.664 21.336 554.493 20.9733 554.152 20.696C553.821 20.4187 553.373 20.28 552.808 20.28C552.424 20.28 552.051 20.3707 551.688 20.552C551.336 20.7227 551.043 20.952 550.808 21.24L549.464 20.184C549.859 19.672 550.355 19.2773 550.952 19C551.549 18.7227 552.2 18.584 552.904 18.584C554.152 18.584 555.101 18.872 555.752 19.448C556.403 20.024 556.728 20.8667 556.728 21.976V27H554.664V26.168H554.536C554.291 26.488 553.965 26.7493 553.56 26.952C553.165 27.1547 552.707 27.256 552.184 27.256ZM552.68 25.624C553.288 25.624 553.768 25.432 554.12 25.048C554.483 24.6533 554.664 24.1947 554.664 23.672C554.12 23.416 553.549 23.288 552.952 23.288C551.864 23.288 551.32 23.6933 551.32 24.504C551.32 24.8347 551.437 25.1067 551.672 25.32C551.907 25.5227 552.243 25.624 552.68 25.624ZM562.695 15.544H566.727C567.452 15.544 568.113 15.6987 568.711 16.008C569.308 16.3067 569.777 16.7333 570.119 17.288C570.46 17.832 570.631 18.456 570.631 19.16C570.631 19.864 570.46 20.4933 570.119 21.048C569.777 21.6027 569.308 22.0347 568.711 22.344C568.113 22.6427 567.452 22.792 566.727 22.792H564.855V27H562.695V15.544ZM566.791 20.744C567.324 20.744 567.74 20.5893 568.039 20.28C568.348 19.9707 568.503 19.5973 568.503 19.16C568.503 18.7227 568.348 18.3547 568.039 18.056C567.74 17.7467 567.324 17.592 566.791 17.592H564.855V20.744H566.791ZM575.514 27.256C574.671 27.256 573.919 27.0693 573.258 26.696C572.597 26.312 572.079 25.7947 571.706 25.144C571.343 24.4827 571.162 23.7413 571.162 22.92C571.162 22.1093 571.343 21.3733 571.706 20.712C572.079 20.0507 572.597 19.5333 573.258 19.16C573.919 18.776 574.671 18.584 575.514 18.584C576.346 18.584 577.093 18.776 577.754 19.16C578.415 19.5333 578.927 20.0507 579.29 20.712C579.663 21.3733 579.85 22.1093 579.85 22.92C579.85 23.7413 579.663 24.4827 579.29 25.144C578.927 25.7947 578.415 26.312 577.754 26.696C577.093 27.0693 576.346 27.256 575.514 27.256ZM575.514 25.32C575.919 25.32 576.293 25.224 576.634 25.032C576.975 24.84 577.247 24.5627 577.45 24.2C577.653 23.8373 577.754 23.4107 577.754 22.92C577.754 22.44 577.653 22.0187 577.45 21.656C577.247 21.2933 576.975 21.016 576.634 20.824C576.293 20.632 575.919 20.536 575.514 20.536C575.109 20.536 574.735 20.632 574.394 20.824C574.053 21.016 573.775 21.2933 573.562 21.656C573.359 22.0187 573.258 22.44 573.258 22.92C573.258 23.4 573.359 23.8267 573.562 24.2C573.775 24.5627 574.053 24.84 574.394 25.032C574.735 25.224 575.109 25.32 575.514 25.32ZM582.481 17.944C582.108 17.944 581.788 17.8107 581.521 17.544C581.255 17.2773 581.121 16.9573 581.121 16.584C581.121 16.2107 581.255 15.896 581.521 15.64C581.788 15.3733 582.108 15.24 582.481 15.24C582.855 15.24 583.169 15.3733 583.425 15.64C583.692 15.896 583.825 16.2107 583.825 16.584C583.825 16.9573 583.692 17.2773 583.425 17.544C583.169 17.8107 582.855 17.944 582.481 17.944ZM581.425 18.84H583.521V27H581.425V18.84ZM585.719 18.84H587.687V19.864H587.815C588.061 19.4693 588.407 19.16 588.855 18.936C589.303 18.7013 589.789 18.584 590.311 18.584C591.293 18.584 592.039 18.8827 592.551 19.48C593.063 20.0773 593.319 20.8933 593.319 21.928V27H591.223V22.184C591.223 21.6613 591.09 21.256 590.823 20.968C590.557 20.68 590.183 20.536 589.703 20.536C589.138 20.536 588.679 20.7547 588.327 21.192C587.986 21.6293 587.815 22.1787 587.815 22.84V27H585.719V18.84ZM598.443 27.128C598.038 27.128 597.665 27.0693 597.323 26.952C596.982 26.824 596.705 26.6533 596.491 26.44C595.99 25.96 595.739 25.2773 595.739 24.392V20.632H594.315V18.84H595.739V16.536H597.835V18.84H599.835V20.632H597.835V24.008C597.835 24.424 597.926 24.7227 598.107 24.904C598.257 25.0747 598.513 25.16 598.875 25.16C599.078 25.16 599.243 25.1333 599.371 25.08C599.51 25.0267 599.686 24.936 599.899 24.808V26.856C599.441 27.0373 598.955 27.128 598.443 27.128ZM604.839 27.256C603.847 27.256 603.042 27.0533 602.423 26.648C601.815 26.2427 601.388 25.7147 601.143 25.064L603.015 24.248C603.186 24.632 603.426 24.9253 603.735 25.128C604.055 25.32 604.423 25.416 604.839 25.416C605.223 25.416 605.543 25.3573 605.799 25.24C606.055 25.112 606.183 24.9093 606.183 24.632C606.183 24.3653 606.066 24.168 605.831 24.04C605.596 23.9013 605.244 23.7787 604.775 23.672L603.815 23.464C603.154 23.304 602.604 23.016 602.167 22.6C601.73 22.1733 601.511 21.6453 601.511 21.016C601.511 20.5467 601.65 20.1253 601.927 19.752C602.215 19.3787 602.599 19.0907 603.079 18.888C603.57 18.6853 604.108 18.584 604.695 18.584C606.38 18.584 607.506 19.176 608.071 20.36L606.279 21.144C605.959 20.568 605.447 20.28 604.743 20.28C604.38 20.28 604.092 20.3493 603.879 20.488C603.666 20.616 603.559 20.7813 603.559 20.984C603.559 21.368 603.922 21.656 604.647 21.848L605.847 22.136C606.658 22.3387 607.266 22.648 607.671 23.064C608.087 23.48 608.295 23.992 608.295 24.6C608.295 25.1227 608.14 25.5867 607.831 25.992C607.532 26.3867 607.116 26.696 606.583 26.92C606.06 27.144 605.479 27.256 604.839 27.256Z" fill="#FCFCFC"/>
</svg>
