<svg width="153" height="24" viewBox="0 0 153 24" fill="none" xmlns="http://www.w3.org/2000/svg">
<rect width="43.3846" height="24" rx="12" fill="#D1D1D6"/>
<rect x="3.69141" y="3.69238" width="16.6154" height="16.6154" rx="8.30769" fill="#FCFCFC"/>
<path d="M54.9088 8.492C54.6608 8.492 54.4488 8.408 54.2728 8.24C54.1048 8.064 54.0208 7.852 54.0208 7.604C54.0208 7.356 54.1048 7.148 54.2728 6.98C54.4488 6.804 54.6608 6.716 54.9088 6.716C55.1568 6.716 55.3648 6.804 55.5328 6.98C55.7088 7.148 55.7968 7.356 55.7968 7.604C55.7968 7.852 55.7088 8.064 55.5328 8.24C55.3648 8.408 55.1568 8.492 54.9088 8.492ZM54.2488 9.38H55.5688V15.5H54.2488V9.38ZM57.2114 9.38H58.4714V10.184H58.5314C58.7074 9.896 58.9674 9.66 59.3114 9.476C59.6634 9.284 60.0354 9.188 60.4274 9.188C61.1714 9.188 61.7354 9.408 62.1194 9.848C62.5114 10.28 62.7074 10.872 62.7074 11.624V15.5H61.3874V11.804C61.3874 11.324 61.2674 10.972 61.0274 10.748C60.7954 10.524 60.4714 10.412 60.0554 10.412C59.7594 10.412 59.4954 10.496 59.2634 10.664C59.0314 10.824 58.8514 11.04 58.7234 11.312C58.5954 11.584 58.5314 11.876 58.5314 12.188V15.5H57.2114V9.38ZM67.0277 15.692C66.4197 15.692 65.8717 15.552 65.3837 15.272C64.9037 14.992 64.5277 14.608 64.2557 14.12C63.9917 13.624 63.8597 13.064 63.8597 12.44C63.8597 11.816 63.9917 11.26 64.2557 10.772C64.5277 10.276 64.9037 9.888 65.3837 9.608C65.8717 9.328 66.4197 9.188 67.0277 9.188C67.6997 9.188 68.2717 9.34 68.7437 9.644C69.2157 9.948 69.5517 10.36 69.7517 10.88L68.5397 11.384C68.2677 10.736 67.7517 10.412 66.9917 10.412C66.6637 10.412 66.3597 10.496 66.0797 10.664C65.8077 10.832 65.5877 11.072 65.4197 11.384C65.2597 11.688 65.1797 12.04 65.1797 12.44C65.1797 12.84 65.2597 13.196 65.4197 13.508C65.5877 13.82 65.8077 14.06 66.0797 14.228C66.3597 14.396 66.6637 14.48 66.9917 14.48C67.3757 14.48 67.7037 14.396 67.9757 14.228C68.2557 14.052 68.4677 13.804 68.6117 13.484L69.7997 14C69.5677 14.52 69.2157 14.932 68.7437 15.236C68.2717 15.54 67.6997 15.692 67.0277 15.692ZM70.9223 6.908H72.2423V15.5H70.9223V6.908ZM76.0254 15.692C75.2814 15.692 74.7134 15.472 74.3214 15.032C73.9374 14.584 73.7454 13.964 73.7454 13.172V9.38H75.0654V12.992C75.0654 13.488 75.1814 13.86 75.4134 14.108C75.6534 14.356 75.9654 14.48 76.3494 14.48C76.6614 14.48 76.9374 14.4 77.1774 14.24C77.4174 14.072 77.6014 13.852 77.7294 13.58C77.8574 13.308 77.9214 13.016 77.9214 12.704V9.38H79.2414V15.5H77.9934V14.708H77.9214C77.7534 14.996 77.4934 15.232 77.1414 15.416C76.7894 15.6 76.4174 15.692 76.0254 15.692ZM83.3352 15.692C82.7832 15.692 82.2832 15.552 81.8352 15.272C81.3872 14.992 81.0312 14.608 80.7672 14.12C80.5112 13.624 80.3832 13.064 80.3832 12.44C80.3832 11.816 80.5112 11.26 80.7672 10.772C81.0312 10.276 81.3872 9.888 81.8352 9.608C82.2832 9.328 82.7832 9.188 83.3352 9.188C83.7672 9.188 84.1552 9.284 84.4992 9.476C84.8432 9.668 85.1032 9.904 85.2792 10.184H85.3392L85.2792 9.32V6.908H86.5992V15.5H85.3392V14.708H85.2792C85.1032 14.98 84.8432 15.212 84.4992 15.404C84.1552 15.596 83.7672 15.692 83.3352 15.692ZM83.5272 14.48C83.8472 14.48 84.1432 14.396 84.4152 14.228C84.6952 14.06 84.9192 13.82 85.0872 13.508C85.2552 13.196 85.3392 12.84 85.3392 12.44C85.3392 12.04 85.2552 11.688 85.0872 11.384C84.9192 11.072 84.6952 10.832 84.4152 10.664C84.1432 10.496 83.8472 10.412 83.5272 10.412C83.2072 10.412 82.9072 10.496 82.6272 10.664C82.3472 10.832 82.1232 11.072 81.9552 11.384C81.7872 11.688 81.7032 12.04 81.7032 12.44C81.7032 12.84 81.7872 13.196 81.9552 13.508C82.1232 13.82 82.3472 14.06 82.6272 14.228C82.9072 14.396 83.2072 14.48 83.5272 14.48ZM90.8745 15.692C90.2745 15.692 89.7345 15.552 89.2545 15.272C88.7825 14.992 88.4105 14.608 88.1385 14.12C87.8745 13.624 87.7425 13.068 87.7425 12.452C87.7425 11.868 87.8705 11.328 88.1265 10.832C88.3905 10.328 88.7545 9.928 89.2185 9.632C89.6825 9.336 90.2105 9.188 90.8025 9.188C91.4185 9.188 91.9505 9.324 92.3985 9.596C92.8545 9.868 93.1985 10.24 93.4305 10.712C93.6705 11.184 93.7905 11.716 93.7905 12.308C93.7905 12.42 93.7785 12.56 93.7545 12.728H89.0625C89.1105 13.296 89.3105 13.736 89.6625 14.048C90.0225 14.352 90.4385 14.504 90.9105 14.504C91.2865 14.504 91.6105 14.42 91.8825 14.252C92.1625 14.076 92.3865 13.84 92.5545 13.544L93.6705 14.072C93.3825 14.576 93.0065 14.972 92.5425 15.26C92.0785 15.548 91.5225 15.692 90.8745 15.692ZM92.4465 11.72C92.4305 11.504 92.3625 11.292 92.2425 11.084C92.1225 10.868 91.9385 10.688 91.6905 10.544C91.4505 10.4 91.1545 10.328 90.8025 10.328C90.3785 10.328 90.0185 10.456 89.7225 10.712C89.4345 10.96 89.2345 11.296 89.1225 11.72H92.4465ZM98.5611 8.492C98.3131 8.492 98.1011 8.408 97.9251 8.24C97.7571 8.064 97.6731 7.852 97.6731 7.604C97.6731 7.356 97.7571 7.148 97.9251 6.98C98.1011 6.804 98.3131 6.716 98.5611 6.716C98.8091 6.716 99.0171 6.804 99.1851 6.98C99.3611 7.148 99.4491 7.356 99.4491 7.604C99.4491 7.852 99.3611 8.064 99.1851 8.24C99.0171 8.408 98.8091 8.492 98.5611 8.492ZM97.9011 9.38H99.2211V15.5H97.9011V9.38ZM100.864 9.38H102.124V10.184H102.184C102.36 9.896 102.62 9.66 102.964 9.476C103.316 9.284 103.688 9.188 104.08 9.188C104.824 9.188 105.388 9.408 105.772 9.848C106.164 10.28 106.36 10.872 106.36 11.624V15.5H105.04V11.804C105.04 11.324 104.92 10.972 104.68 10.748C104.448 10.524 104.124 10.412 103.708 10.412C103.412 10.412 103.148 10.496 102.916 10.664C102.684 10.824 102.504 11.04 102.376 11.312C102.248 11.584 102.184 11.876 102.184 12.188V15.5H100.864V9.38ZM110.661 9.38H111.921V10.28H111.981C112.117 9.968 112.353 9.712 112.689 9.512C113.025 9.304 113.381 9.2 113.757 9.2C114.053 9.2 114.301 9.24 114.501 9.32V10.688C114.149 10.56 113.833 10.496 113.553 10.496C113.249 10.496 112.977 10.576 112.737 10.736C112.505 10.896 112.321 11.112 112.185 11.384C112.049 11.648 111.981 11.94 111.981 12.26V15.5H110.661V9.38ZM117.945 15.692C117.345 15.692 116.805 15.552 116.325 15.272C115.853 14.992 115.481 14.608 115.209 14.12C114.945 13.624 114.813 13.068 114.813 12.452C114.813 11.868 114.941 11.328 115.197 10.832C115.461 10.328 115.825 9.928 116.289 9.632C116.753 9.336 117.281 9.188 117.873 9.188C118.489 9.188 119.021 9.324 119.469 9.596C119.925 9.868 120.269 10.24 120.501 10.712C120.741 11.184 120.861 11.716 120.861 12.308C120.861 12.42 120.849 12.56 120.825 12.728H116.133C116.181 13.296 116.381 13.736 116.733 14.048C117.093 14.352 117.509 14.504 117.981 14.504C118.357 14.504 118.681 14.42 118.953 14.252C119.233 14.076 119.457 13.84 119.625 13.544L120.741 14.072C120.453 14.576 120.077 14.972 119.613 15.26C119.149 15.548 118.593 15.692 117.945 15.692ZM119.517 11.72C119.501 11.504 119.433 11.292 119.313 11.084C119.193 10.868 119.009 10.688 118.761 10.544C118.521 10.4 118.225 10.328 117.873 10.328C117.449 10.328 117.089 10.456 116.793 10.712C116.505 10.96 116.305 11.296 116.193 11.72H119.517ZM122.015 9.38H123.275V10.184H123.335C123.511 9.904 123.771 9.668 124.115 9.476C124.459 9.284 124.847 9.188 125.279 9.188C125.831 9.188 126.331 9.328 126.779 9.608C127.227 9.888 127.579 10.276 127.835 10.772C128.099 11.26 128.231 11.816 128.231 12.44C128.231 13.064 128.099 13.624 127.835 14.12C127.579 14.608 127.227 14.992 126.779 15.272C126.331 15.552 125.831 15.692 125.279 15.692C124.847 15.692 124.459 15.596 124.115 15.404C123.771 15.212 123.511 14.98 123.335 14.708H123.275L123.335 15.56V18.092H122.015V9.38ZM125.087 14.48C125.407 14.48 125.707 14.396 125.987 14.228C126.267 14.06 126.491 13.82 126.659 13.508C126.827 13.196 126.911 12.84 126.911 12.44C126.911 12.04 126.827 11.688 126.659 11.384C126.491 11.072 126.267 10.832 125.987 10.664C125.707 10.496 125.407 10.412 125.087 10.412C124.767 10.412 124.467 10.496 124.187 10.664C123.915 10.832 123.695 11.072 123.527 11.384C123.359 11.688 123.275 12.04 123.275 12.44C123.275 12.84 123.359 13.196 123.527 13.508C123.695 13.82 123.915 14.06 124.187 14.228C124.467 14.396 124.767 14.48 125.087 14.48ZM132.302 15.692C131.686 15.692 131.134 15.552 130.646 15.272C130.158 14.984 129.778 14.592 129.506 14.096C129.234 13.6 129.098 13.048 129.098 12.44C129.098 11.832 129.234 11.28 129.506 10.784C129.778 10.288 130.158 9.9 130.646 9.62C131.134 9.332 131.686 9.188 132.302 9.188C132.918 9.188 133.47 9.332 133.958 9.62C134.446 9.908 134.826 10.3 135.098 10.796C135.37 11.292 135.506 11.84 135.506 12.44C135.506 13.048 135.37 13.6 135.098 14.096C134.826 14.592 134.446 14.984 133.958 15.272C133.47 15.552 132.918 15.692 132.302 15.692ZM132.302 14.48C132.638 14.48 132.95 14.4 133.238 14.24C133.526 14.072 133.754 13.836 133.922 13.532C134.098 13.22 134.186 12.856 134.186 12.44C134.186 12.024 134.098 11.664 133.922 11.36C133.754 11.056 133.526 10.824 133.238 10.664C132.95 10.496 132.638 10.412 132.302 10.412C131.966 10.412 131.654 10.496 131.366 10.664C131.078 10.824 130.846 11.056 130.67 11.36C130.502 11.664 130.418 12.024 130.418 12.44C130.418 12.856 130.502 13.22 130.67 13.532C130.846 13.836 131.078 14.072 131.366 14.24C131.654 14.4 131.966 14.48 132.302 14.48ZM136.606 9.38H137.866V10.28H137.926C138.086 9.952 138.334 9.692 138.67 9.5C139.014 9.308 139.386 9.212 139.786 9.212C140.01 9.212 140.174 9.228 140.278 9.26V10.592C140.078 10.536 139.866 10.508 139.642 10.508C139.122 10.508 138.706 10.672 138.394 11C138.082 11.328 137.926 11.76 137.926 12.296V15.5H136.606V9.38ZM144.034 15.596C143.762 15.596 143.506 15.552 143.266 15.464C143.026 15.376 142.83 15.26 142.678 15.116C142.334 14.772 142.162 14.304 142.162 13.712V10.544H141.094V9.38H142.162V7.652H143.482V9.38H144.97V10.544H143.482V13.424C143.482 13.752 143.546 13.984 143.674 14.12C143.794 14.28 144.002 14.36 144.298 14.36C144.434 14.36 144.554 14.344 144.658 14.312C144.762 14.272 144.874 14.212 144.994 14.132V15.416C144.73 15.536 144.41 15.596 144.034 15.596ZM148.576 15.692C147.872 15.692 147.296 15.54 146.848 15.236C146.4 14.924 146.084 14.528 145.9 14.048L147.076 13.532C147.22 13.852 147.42 14.096 147.676 14.264C147.94 14.432 148.24 14.516 148.576 14.516C148.904 14.516 149.18 14.46 149.404 14.348C149.628 14.228 149.74 14.052 149.74 13.82C149.74 13.596 149.644 13.42 149.452 13.292C149.26 13.164 148.964 13.052 148.564 12.956L147.832 12.776C147.344 12.656 146.94 12.444 146.62 12.14C146.3 11.836 146.14 11.452 146.14 10.988C146.14 10.628 146.244 10.312 146.452 10.04C146.668 9.768 146.956 9.56 147.316 9.416C147.676 9.264 148.068 9.188 148.492 9.188C149.06 9.188 149.56 9.304 149.992 9.536C150.424 9.76 150.736 10.088 150.928 10.52L149.776 11.024C149.544 10.552 149.12 10.316 148.504 10.316C148.208 10.316 147.96 10.376 147.76 10.496C147.56 10.616 147.46 10.772 147.46 10.964C147.46 11.148 147.536 11.3 147.688 11.42C147.84 11.532 148.064 11.628 148.36 11.708L149.26 11.936C149.86 12.088 150.312 12.32 150.616 12.632C150.928 12.936 151.084 13.312 151.084 13.76C151.084 14.144 150.972 14.484 150.748 14.78C150.532 15.068 150.232 15.292 149.848 15.452C149.464 15.612 149.04 15.692 148.576 15.692Z" fill="#263238"/>
</svg>
