<svg width="92" height="20" viewBox="0 0 92 20" fill="none" xmlns="http://www.w3.org/2000/svg">
<rect y="0.5" width="92" height="19" rx="9.5" fill="#DFF2E3"/>
<path d="M20.1676 11.1705H21.4631L22.375 12.3594L22.8054 12.8878L24.2585 14.7841H22.9119L21.9403 13.5185L21.608 13.0582L20.1676 11.1705ZM24.5398 9.63636C24.5398 10.5682 24.3693 11.3693 24.0284 12.0398C23.6875 12.7074 23.2202 13.2216 22.6264 13.5824C22.0355 13.9403 21.3636 14.1193 20.6108 14.1193C19.8551 14.1193 19.1804 13.9403 18.5866 13.5824C17.9957 13.2216 17.5298 12.706 17.1889 12.0355C16.848 11.3651 16.6776 10.5653 16.6776 9.63636C16.6776 8.70455 16.848 7.90483 17.1889 7.23722C17.5298 6.56676 17.9957 6.05256 18.5866 5.6946C19.1804 5.33381 19.8551 5.15341 20.6108 5.15341C21.3636 5.15341 22.0355 5.33381 22.6264 5.6946C23.2202 6.05256 23.6875 6.56676 24.0284 7.23722C24.3693 7.90483 24.5398 8.70455 24.5398 9.63636ZM23.2358 9.63636C23.2358 8.92614 23.1207 8.32812 22.8906 7.84233C22.6634 7.35369 22.3509 6.98438 21.9531 6.73438C21.5582 6.48153 21.1108 6.35511 20.6108 6.35511C20.108 6.35511 19.6591 6.48153 19.2642 6.73438C18.8693 6.98438 18.5568 7.35369 18.3267 7.84233C18.0994 8.32812 17.9858 8.92614 17.9858 9.63636C17.9858 10.3466 18.0994 10.946 18.3267 11.4347C18.5568 11.9205 18.8693 12.2898 19.2642 12.5426C19.6591 12.7926 20.108 12.9176 20.6108 12.9176C21.1108 12.9176 21.5582 12.7926 21.9531 12.5426C22.3509 12.2898 22.6634 11.9205 22.8906 11.4347C23.1207 10.946 23.2358 10.3466 23.2358 9.63636ZM30.2255 11.2855V7.45455H31.5039V14H30.2511V12.8665H30.1829C30.0323 13.2159 29.7908 13.5071 29.4585 13.7401C29.1289 13.9702 28.7184 14.0852 28.2269 14.0852C27.8065 14.0852 27.4343 13.9929 27.1104 13.8082C26.7894 13.6207 26.5366 13.3438 26.3519 12.9773C26.1701 12.6108 26.0792 12.1577 26.0792 11.6179V7.45455H27.3533V11.4645C27.3533 11.9105 27.4769 12.2656 27.7241 12.5298C27.9712 12.794 28.2923 12.9261 28.6871 12.9261C28.9258 12.9261 29.163 12.8665 29.3988 12.7472C29.6374 12.6278 29.8349 12.4474 29.9911 12.206C30.1502 11.9645 30.2283 11.6577 30.2255 11.2855ZM33.2159 14V7.45455H34.4901V14H33.2159ZM33.8594 6.4446C33.6378 6.4446 33.4474 6.37074 33.2884 6.22301C33.1321 6.07244 33.054 5.89347 33.054 5.68608C33.054 5.47585 33.1321 5.29687 33.2884 5.14915C33.4474 4.99858 33.6378 4.9233 33.8594 4.9233C34.081 4.9233 34.2699 4.99858 34.4261 5.14915C34.5852 5.29687 34.6648 5.47585 34.6648 5.68608C34.6648 5.89347 34.5852 6.07244 34.4261 6.22301C34.2699 6.37074 34.081 6.4446 33.8594 6.4446ZM38.9613 14.1321C38.3278 14.1321 37.7823 13.9886 37.3249 13.7017C36.8704 13.4119 36.521 13.0128 36.2766 12.5043C36.0323 11.9957 35.9102 11.4134 35.9102 10.7571C35.9102 10.0923 36.0352 9.50568 36.2852 8.99716C36.5352 8.4858 36.8874 8.08665 37.342 7.79972C37.7965 7.51278 38.332 7.36932 38.9485 7.36932C39.4457 7.36932 39.8888 7.46165 40.2781 7.64631C40.6673 7.82812 40.9812 8.08381 41.2198 8.41335C41.4613 8.7429 41.6048 9.12784 41.6502 9.56818H40.4102C40.342 9.26136 40.1857 8.99716 39.9414 8.77557C39.6999 8.55398 39.3761 8.44318 38.9698 8.44318C38.6147 8.44318 38.3036 8.53693 38.0366 8.72443C37.7724 8.90909 37.5664 9.1733 37.4187 9.51705C37.271 9.85795 37.1971 10.2614 37.1971 10.7273C37.1971 11.2045 37.2695 11.6165 37.4144 11.9631C37.5593 12.3097 37.7638 12.5781 38.0281 12.7685C38.2951 12.9588 38.609 13.054 38.9698 13.054C39.2113 13.054 39.43 13.0099 39.6261 12.9219C39.8249 12.831 39.9911 12.7017 40.1246 12.5341C40.261 12.3665 40.3562 12.1648 40.4102 11.929H41.6502C41.6048 12.3523 41.467 12.7301 41.2369 13.0625C41.0067 13.3949 40.6985 13.6562 40.3121 13.8466C39.9286 14.0369 39.4783 14.1321 38.9613 14.1321ZM44.1847 11.7798L44.1761 10.2244H44.3977L47.0057 7.45455H48.5312L45.5568 10.608H45.3565L44.1847 11.7798ZM43.0128 14V5.27273H44.2869V14H43.0128ZM47.1463 14L44.8026 10.8892L45.6804 9.99858L48.7102 14H47.1463ZM49.7947 14V5.27273H52.9908C53.6101 5.27273 54.1229 5.375 54.5291 5.57955C54.9354 5.78125 55.2393 6.0554 55.4411 6.40199C55.6428 6.74574 55.7436 7.13352 55.7436 7.56534C55.7436 7.92898 55.6768 8.2358 55.5433 8.4858C55.4098 8.73295 55.2308 8.93182 55.0064 9.08239C54.7848 9.23011 54.5405 9.33807 54.2734 9.40625V9.49148C54.5632 9.50568 54.8459 9.59943 55.1214 9.77273C55.3999 9.94318 55.63 10.1861 55.8118 10.5014C55.9936 10.8168 56.0845 11.2003 56.0845 11.652C56.0845 12.098 55.9794 12.4986 55.7692 12.8537C55.5618 13.206 55.2408 13.4858 54.8061 13.6932C54.3714 13.8977 53.8161 14 53.1399 14H49.7947ZM51.1115 12.8707H53.0121C53.6428 12.8707 54.0945 12.7486 54.3672 12.5043C54.6399 12.2599 54.7763 11.9545 54.7763 11.5881C54.7763 11.3125 54.7067 11.0597 54.5675 10.8295C54.4283 10.5994 54.2294 10.4162 53.9709 10.2798C53.7152 10.1435 53.4112 10.0753 53.0589 10.0753H51.1115V12.8707ZM51.1115 9.0483H52.8757C53.1712 9.0483 53.4368 8.99148 53.6726 8.87784C53.9112 8.7642 54.1001 8.60511 54.2393 8.40057C54.3814 8.19318 54.4524 7.94886 54.4524 7.66761C54.4524 7.30682 54.326 7.00426 54.0732 6.75994C53.8203 6.51562 53.4325 6.39347 52.9098 6.39347H51.1115V9.0483ZM60.3011 14.1321C59.6875 14.1321 59.152 13.9915 58.6946 13.7102C58.2372 13.429 57.8821 13.0355 57.6293 12.5298C57.3764 12.0241 57.25 11.4332 57.25 10.7571C57.25 10.0781 57.3764 9.48437 57.6293 8.97585C57.8821 8.46733 58.2372 8.07244 58.6946 7.79119C59.152 7.50994 59.6875 7.36932 60.3011 7.36932C60.9148 7.36932 61.4503 7.50994 61.9077 7.79119C62.3651 8.07244 62.7202 8.46733 62.973 8.97585C63.2259 9.48437 63.3523 10.0781 63.3523 10.7571C63.3523 11.4332 63.2259 12.0241 62.973 12.5298C62.7202 13.0355 62.3651 13.429 61.9077 13.7102C61.4503 13.9915 60.9148 14.1321 60.3011 14.1321ZM60.3054 13.0625C60.7031 13.0625 61.0327 12.9574 61.294 12.7472C61.5554 12.5369 61.7486 12.2571 61.8736 11.9077C62.0014 11.5582 62.0653 11.1733 62.0653 10.7528C62.0653 10.3352 62.0014 9.9517 61.8736 9.60227C61.7486 9.25 61.5554 8.96733 61.294 8.75426C61.0327 8.54119 60.7031 8.43466 60.3054 8.43466C59.9048 8.43466 59.5724 8.54119 59.3082 8.75426C59.0469 8.96733 58.8523 9.25 58.7244 9.60227C58.5994 9.9517 58.5369 10.3352 58.5369 10.7528C58.5369 11.1733 58.5994 11.5582 58.7244 11.9077C58.8523 12.2571 59.0469 12.5369 59.3082 12.7472C59.5724 12.9574 59.9048 13.0625 60.3054 13.0625ZM67.5316 14.1321C66.918 14.1321 66.3825 13.9915 65.9251 13.7102C65.4677 13.429 65.1126 13.0355 64.8597 12.5298C64.6069 12.0241 64.4805 11.4332 64.4805 10.7571C64.4805 10.0781 64.6069 9.48437 64.8597 8.97585C65.1126 8.46733 65.4677 8.07244 65.9251 7.79119C66.3825 7.50994 66.918 7.36932 67.5316 7.36932C68.1452 7.36932 68.6808 7.50994 69.1381 7.79119C69.5955 8.07244 69.9506 8.46733 70.2035 8.97585C70.4563 9.48437 70.5827 10.0781 70.5827 10.7571C70.5827 11.4332 70.4563 12.0241 70.2035 12.5298C69.9506 13.0355 69.5955 13.429 69.1381 13.7102C68.6808 13.9915 68.1452 14.1321 67.5316 14.1321ZM67.5359 13.0625C67.9336 13.0625 68.2631 12.9574 68.5245 12.7472C68.7859 12.5369 68.979 12.2571 69.104 11.9077C69.2319 11.5582 69.2958 11.1733 69.2958 10.7528C69.2958 10.3352 69.2319 9.9517 69.104 9.60227C68.979 9.25 68.7859 8.96733 68.5245 8.75426C68.2631 8.54119 67.9336 8.43466 67.5359 8.43466C67.1353 8.43466 66.8029 8.54119 66.5387 8.75426C66.2773 8.96733 66.0827 9.25 65.9549 9.60227C65.8299 9.9517 65.7674 10.3352 65.7674 10.7528C65.7674 11.1733 65.8299 11.5582 65.9549 11.9077C66.0827 12.2571 66.2773 12.5369 66.5387 12.7472C66.8029 12.9574 67.1353 13.0625 67.5359 13.0625ZM73.1768 11.7798L73.1683 10.2244H73.3899L75.9979 7.45455H77.5234L74.549 10.608H74.3487L73.1768 11.7798ZM72.005 14V5.27273H73.2791V14H72.005ZM76.1385 14L73.7947 10.8892L74.6726 9.99858L77.7024 14H76.1385ZM83.5895 9.05256L82.4347 9.2571C82.3864 9.10937 82.3097 8.96875 82.2045 8.83523C82.1023 8.7017 81.9631 8.59233 81.7869 8.5071C81.6108 8.42187 81.3906 8.37926 81.1264 8.37926C80.7656 8.37926 80.4645 8.46023 80.223 8.62216C79.9815 8.78125 79.8608 8.98722 79.8608 9.24006C79.8608 9.45881 79.9418 9.63494 80.1037 9.76847C80.2656 9.90199 80.527 10.0114 80.8878 10.0966L81.9276 10.3352C82.5298 10.4744 82.9787 10.6889 83.2741 10.9787C83.5696 11.2685 83.7173 11.6449 83.7173 12.108C83.7173 12.5 83.6037 12.8494 83.3764 13.1562C83.152 13.4602 82.8381 13.6989 82.4347 13.8722C82.0341 14.0455 81.5696 14.1321 81.0412 14.1321C80.3082 14.1321 79.7102 13.9759 79.2472 13.6634C78.7841 13.348 78.5 12.9006 78.3949 12.321L79.6264 12.1335C79.7031 12.4545 79.8608 12.6974 80.0994 12.8622C80.3381 13.0241 80.6491 13.1051 81.0327 13.1051C81.4503 13.1051 81.7841 13.0185 82.0341 12.8452C82.2841 12.669 82.4091 12.4545 82.4091 12.2017C82.4091 11.9972 82.3324 11.8253 82.179 11.6861C82.0284 11.5469 81.7969 11.4418 81.4844 11.3707L80.3764 11.1278C79.7656 10.9886 79.3139 10.767 79.0213 10.4631C78.7315 10.1591 78.5866 9.77415 78.5866 9.30824C78.5866 8.92187 78.6946 8.58381 78.9105 8.29403C79.1264 8.00426 79.4247 7.77841 79.8054 7.61648C80.1861 7.4517 80.6222 7.36932 81.1136 7.36932C81.821 7.36932 82.3778 7.52273 82.7841 7.82955C83.1903 8.13352 83.4588 8.54119 83.5895 9.05256Z" fill="#37BE55"/>
<circle cx="8" cy="10" r="3" fill="#37BE55"/>
</svg>
